<svg width="894" height="455" viewBox="0 0 894 455" fill="none" xmlns="http://www.w3.org/2000/svg">
<g clip-path="url(#clip0_19_451)">
<path d="M454.455 228.352V228.354C454.457 280.582 436.371 331.195 403.276 371.569C370.182 411.944 324.128 439.581 272.962 449.772C221.795 459.963 168.682 452.077 122.672 427.459C76.6614 402.84 40.6012 363.012 20.6354 314.76C0.669615 266.508 -1.96639 212.818 13.1766 162.839C28.3196 112.859 60.3045 69.6828 103.681 40.6659C147.058 11.649 199.143 -1.41299 251.061 3.70566C302.979 8.82431 351.519 31.8068 388.408 68.7373L388.409 68.7383C409.412 89.6506 426.064 114.525 437.401 141.923C448.737 169.321 454.534 198.697 454.455 228.352Z" fill="white"/>
<path d="M454.455 228.352V228.354C454.457 280.582 436.371 331.195 403.276 371.569C370.182 411.944 324.128 439.581 272.962 449.772C221.795 459.963 168.682 452.077 122.672 427.459C76.6614 402.84 40.6012 363.012 20.6354 314.76C0.669615 266.508 -1.96639 212.818 13.1766 162.839C28.3196 112.859 60.3045 69.6828 103.681 40.6659C147.058 11.649 199.143 -1.41299 251.061 3.70566C302.979 8.82431 351.519 31.8068 388.408 68.7373L388.409 68.7383C409.412 89.6506 426.064 114.525 437.401 141.923C448.737 169.321 454.534 198.697 454.455 228.352Z" fill="url(#paint0_linear_19_451)"/>
<path d="M454.455 228.352V228.354C454.457 280.582 436.371 331.195 403.276 371.569C370.182 411.944 324.128 439.581 272.962 449.772C221.795 459.963 168.682 452.077 122.672 427.459C76.6614 402.84 40.6012 363.012 20.6354 314.76C0.669615 266.508 -1.96639 212.818 13.1766 162.839C28.3196 112.859 60.3045 69.6828 103.681 40.6659C147.058 11.649 199.143 -1.41299 251.061 3.70566C302.979 8.82431 351.519 31.8068 388.408 68.7373L388.409 68.7383C409.412 89.6506 426.064 114.525 437.401 141.923C448.737 169.321 454.534 198.697 454.455 228.352Z" stroke="black"/>
<path d="M437.672 228.352V228.354C437.676 276.695 420.937 323.542 390.306 360.913C359.676 398.283 317.05 423.864 269.692 433.298C222.333 442.732 173.173 435.434 130.586 412.649C87.9996 389.863 54.6225 352.999 36.142 308.339C17.6615 263.678 15.2212 213.984 29.2369 167.724C43.2527 121.464 72.8572 81.5 113.006 54.6425C153.155 27.785 201.363 15.6952 249.418 20.4331C297.472 25.1711 342.399 46.4435 376.543 80.626L376.544 80.627C395.984 99.9804 411.397 123.002 421.889 148.359C432.382 173.717 437.746 200.906 437.672 228.352Z" fill="#DDDDDD"/>
<path d="M437.672 228.352V228.354C437.676 276.695 420.937 323.542 390.306 360.913C359.676 398.283 317.05 423.864 269.692 433.298C222.333 442.732 173.173 435.434 130.586 412.649C87.9996 389.863 54.6225 352.999 36.142 308.339C17.6615 263.678 15.2212 213.984 29.2369 167.724C43.2527 121.464 72.8572 81.5 113.006 54.6425C153.155 27.785 201.363 15.6952 249.418 20.4331C297.472 25.1711 342.399 46.4435 376.543 80.626L376.544 80.627C395.984 99.9804 411.397 123.002 421.889 148.359C432.382 173.717 437.746 200.906 437.672 228.352Z" fill="url(#paint1_linear_19_451)"/>
<path d="M437.672 228.352V228.354C437.676 276.695 420.937 323.542 390.306 360.913C359.676 398.283 317.05 423.864 269.692 433.298C222.333 442.732 173.173 435.434 130.586 412.649C87.9996 389.863 54.6225 352.999 36.142 308.339C17.6615 263.678 15.2212 213.984 29.2369 167.724C43.2527 121.464 72.8572 81.5 113.006 54.6425C153.155 27.785 201.363 15.6952 249.418 20.4331C297.472 25.1711 342.399 46.4435 376.543 80.626L376.544 80.627C395.984 99.9804 411.397 123.002 421.889 148.359C432.382 173.717 437.746 200.906 437.672 228.352Z" stroke="black"/>
<path d="M23.6718 228.354C23.6735 230.225 24.3189 232.039 25.4996 233.49C26.6802 234.941 28.3239 235.941 30.1543 236.321C31.9847 236.701 33.89 236.438 35.5498 235.577C37.2096 234.716 38.5225 233.309 39.2678 231.593C40.0131 229.877 40.1452 227.956 39.6419 226.154C39.1386 224.351 38.0307 222.777 36.5045 221.697C34.9782 220.616 33.1268 220.095 31.2617 220.22C29.3965 220.346 27.6314 221.11 26.2633 222.386L32.9936 228.211L28.0004 231.556" stroke="#B3B3B3" stroke-width="0.693744" stroke-linecap="round" stroke-linejoin="round"/>
<path d="M413.633 228.354C413.633 126.254 330.957 43.4852 228.971 43.4852C126.985 43.4852 44.3091 126.254 44.3091 228.354C44.3091 330.454 126.985 413.222 228.971 413.222C330.957 413.222 413.633 330.454 413.633 228.354Z" fill="black" stroke="black" stroke-width="0.475167" stroke-miterlimit="10"/>
<path d="M479.397 343.43C497.161 310.53 506.524 273.779 506.661 236.42C506.798 199.062 497.704 162.244 480.183 129.215H832.666C844.402 129.215 853.905 139.009 853.905 151.094V321.561C853.905 333.636 844.402 343.43 832.666 343.43H479.397Z" fill="#DADADA"/>
<path d="M482.5 246.5L455 236.5H476.5V226L506.5 236.5H482.5V246.5Z" fill="url(#paint2_linear_19_451)"/>
<path d="M377.392 202.391H362.702C348.793 202.391 337.518 213.666 337.518 227.574C337.518 241.483 348.793 252.758 362.702 252.758H377.392C378.551 252.758 379.491 251.819 379.491 250.66V235.969C379.491 234.81 378.551 233.87 377.392 233.87H362.702C359.233 233.87 356.406 231.043 356.406 227.574C356.406 224.106 359.233 221.279 362.702 221.279H377.392C378.551 221.279 379.491 220.339 379.491 219.18V204.489C379.491 203.33 378.551 202.391 377.392 202.391ZM375.293 248.561H371.096V238.068H375.293V248.561ZM352.208 227.574C352.208 233.361 356.915 238.068 362.702 238.068H366.899V248.561H362.702C351.111 248.561 341.715 239.165 341.715 227.575C341.715 215.984 351.111 206.588 362.702 206.588H366.899V217.081H362.702C356.915 217.081 352.208 221.788 352.208 227.574ZM375.293 217.081H371.096V206.588H375.293V217.081Z" fill="url(#paint3_linear_19_451)"/>
<path d="M383.688 208.687H385.787C386.946 208.687 387.885 207.747 387.885 206.588C387.885 205.429 386.946 204.489 385.787 204.489H383.688C382.529 204.489 381.59 205.429 381.59 206.588C381.589 207.747 382.529 208.687 383.688 208.687Z" fill="url(#paint4_linear_19_451)"/>
<path d="M385.787 214.983H383.688C382.529 214.983 381.589 215.922 381.589 217.081C381.589 218.24 382.529 219.18 383.688 219.18H385.787C386.946 219.18 387.885 218.24 387.885 217.081C387.885 215.922 386.946 214.983 385.787 214.983Z" fill="url(#paint5_linear_19_451)"/>
<path d="M385.787 235.969H383.688C382.529 235.969 381.59 236.909 381.59 238.068C381.59 239.227 382.529 240.166 383.688 240.166H385.787C386.946 240.166 387.885 239.227 387.885 238.068C387.885 236.909 386.946 235.969 385.787 235.969Z" fill="url(#paint6_linear_19_451)"/>
<path d="M385.787 246.462H383.688C382.529 246.462 381.589 247.402 381.589 248.561C381.589 249.72 382.529 250.66 383.688 250.66H385.787C386.946 250.66 387.885 249.72 387.885 248.561C387.885 247.402 386.946 246.462 385.787 246.462Z" fill="url(#paint7_linear_19_451)"/>
</g>
<defs>
<linearGradient id="paint0_linear_19_451" x1="2.96826" y1="228.365" x2="454.956" y2="228.365" gradientUnits="userSpaceOnUse">
<stop stop-color="white" stop-opacity="0"/>
<stop offset="1" stop-color="#CCC9C9"/>
</linearGradient>
<linearGradient id="paint1_linear_19_451" x1="19.7516" y1="228.371" x2="438.173" y2="228.371" gradientUnits="userSpaceOnUse">
<stop stop-color="#B6B6B6"/>
<stop offset="1" stop-color="#DDDDDD" stop-opacity="0"/>
</linearGradient>
<linearGradient id="paint2_linear_19_451" x1="455" y1="246.5" x2="455" y2="226" gradientUnits="userSpaceOnUse">
<stop offset="0.0416667" stop-color="#C900FC"/>
<stop offset="1" stop-color="#302EB7"/>
</linearGradient>
<linearGradient id="paint3_linear_19_451" x1="337.518" y1="202.391" x2="387.885" y2="202.391" gradientUnits="userSpaceOnUse">
<stop offset="0.0416667" stop-color="#C900FC"/>
<stop offset="1" stop-color="#302EB7"/>
</linearGradient>
<linearGradient id="paint4_linear_19_451" x1="337.518" y1="202.391" x2="387.885" y2="202.391" gradientUnits="userSpaceOnUse">
<stop offset="0.0416667" stop-color="#C900FC"/>
<stop offset="1" stop-color="#302EB7"/>
</linearGradient>
<linearGradient id="paint5_linear_19_451" x1="337.518" y1="202.391" x2="387.885" y2="202.391" gradientUnits="userSpaceOnUse">
<stop offset="0.0416667" stop-color="#C900FC"/>
<stop offset="1" stop-color="#302EB7"/>
</linearGradient>
<linearGradient id="paint6_linear_19_451" x1="337.518" y1="202.391" x2="387.885" y2="202.391" gradientUnits="userSpaceOnUse">
<stop offset="0.0416667" stop-color="#C900FC"/>
<stop offset="1" stop-color="#302EB7"/>
</linearGradient>
<linearGradient id="paint7_linear_19_451" x1="337.518" y1="202.391" x2="387.885" y2="202.391" gradientUnits="userSpaceOnUse">
<stop offset="0.0416667" stop-color="#C900FC"/>
<stop offset="1" stop-color="#302EB7"/>
</linearGradient>
<clipPath id="clip0_19_451">
<rect width="455" height="894" fill="white" transform="translate(0 455) rotate(-90)"/>
</clipPath>
</defs>
</svg>
